<?xml version="1.0" encoding="UTF-8" standalone="no" ?>
<!DOCTYPE svg PUBLIC "-//W3C//DTD SVG 1.1//EN" "http://www.w3.org/Graphics/SVG/1.1/DTD/svg11.dtd">
<svg xmlns="http://www.w3.org/2000/svg" xmlns:xlink="http://www.w3.org/1999/xlink" version="1.1" width="1080" height="1080" viewBox="0 0 1080 1080" xml:space="preserve">
<desc>Created with Fabric.js 5.2.4</desc>
<defs>
</defs>
<g transform="matrix(1 0 0 1 540 540)" id="39f61609-4819-443d-b933-00a08b30330f"  >
</g>
<g transform="matrix(1 0 0 1 540 540)" id="a93d9bf2-76dc-4c7b-8be8-92590cfd6f88"  >
<rect style="stroke: none; stroke-width: 1; stroke-dasharray: none; stroke-linecap: butt; stroke-dashoffset: 0; stroke-linejoin: miter; stroke-miterlimit: 4; fill: rgb(255,255,255); fill-rule: nonzero; opacity: 1; visibility: hidden;" vector-effect="non-scaling-stroke"  x="-540" y="-540" rx="0" ry="0" width="1080" height="1080" />
</g>
<g transform="matrix(1 0 0 1 450.28 540)"  >
<g style="" vector-effect="non-scaling-stroke"   >
		<g transform="matrix(1 0 0 1 -6.54 -18.12)"  >
<path style="stroke: none; stroke-width: 1; stroke-dasharray: none; stroke-linecap: butt; stroke-dashoffset: 0; stroke-linejoin: miter; stroke-miterlimit: 4; fill: rgb(253,173,176); fill-rule: nonzero; opacity: 1;" vector-effect="non-scaling-stroke"  transform=" translate(-359.29, -294.87)" d="M 376.76337 311.69684 C 379.38379000000003 322.19742 375.87836 332.05048 368.93463 333.70395 C 361.99093000000005 335.35745000000003 354.23984 328.18576 351.61996000000005 317.68112 C 350.51361 313.49917000000005 350.46405000000004 309.11560000000003 351.4754300000001 304.89712000000003 L 340.95648000000006 260.26666 L 362.8208000000001 255.80729 L 370.8693200000001 300.27846999999997 C 373.75500000000005 303.56976 375.7760600000001 307.48513999999994 376.7633600000001 311.69683999999995 C 376.7633600000001 311.69683999999995 376.7633600000001 311.69686999999993 376.7633600000001 311.69683999999995 Z" stroke-linecap="round" />
</g>
		<g transform="matrix(1 0 0 1 -58.82 279.32)"  >
<polygon style="stroke: none; stroke-width: 1; stroke-dasharray: none; stroke-linecap: butt; stroke-dashoffset: 0; stroke-linejoin: miter; stroke-miterlimit: 4; fill: rgb(253,173,176); fill-rule: nonzero; opacity: 1;" vector-effect="non-scaling-stroke"  points="-21.92,-25.42 -20.57,3.83 -21.92,11.93 -17.2,21.37 19.9,25.42 21.92,7.88 2.36,-2.24 1.79,-18.77 -21.92,-25.42 " />
</g>
		<g transform="matrix(1 0 0 1 -41.24 298.05)"  >
<path style="stroke: none; stroke-width: 1; stroke-dasharray: none; stroke-linecap: butt; stroke-dashoffset: 0; stroke-linejoin: miter; stroke-miterlimit: 4; fill: rgb(47,46,67); fill-rule: nonzero; opacity: 1;" vector-effect="non-scaling-stroke"  transform=" translate(-324.59, -611.05)" d="M 324.21533 610.98877 L 322.19174 613.6868900000001 L 283.34009 602.49085 C 283.34009 602.49085 285.09277999999995 619.7576300000001 285.09277999999995 623.13032 C 285.09277999999995 626.5030099999999 349.17279999999994 626.50294 358.81533999999994 625.15388 C 368.45787999999993 623.80482 365.36141999999995 615.0359599999999 365.36141999999995 615.0359599999999 L 325.37371999999993 596.10731 L 324.21529999999996 610.98878 L 324.21532999999994 610.98878 Z" stroke-linecap="round" />
</g>
		<g transform="matrix(1 0 0 1 -167.93 263.14)"  >
<polygon style="stroke: none; stroke-width: 1; stroke-dasharray: none; stroke-linecap: butt; stroke-dashoffset: 0; stroke-linejoin: miter; stroke-miterlimit: 4; fill: rgb(253,173,176); fill-rule: nonzero; opacity: 1;" vector-effect="non-scaling-stroke"  points="-9.46,-30.77 -17.55,-2.63 -21.42,4.61 -19.97,15.07 13.89,30.77 21.42,14.81 6.12,-1.04 15.72,-25.92 -9.46,-30.77 " />
</g>
		<g transform="matrix(1 0 0 1 -156.08 288.46)"  >
<path style="stroke: none; stroke-width: 1; stroke-dasharray: none; stroke-linecap: butt; stroke-dashoffset: 0; stroke-linejoin: miter; stroke-miterlimit: 4; fill: rgb(47,46,67); fill-rule: nonzero; opacity: 1;" vector-effect="non-scaling-stroke"  transform=" translate(-209.75, -601.45)" d="M 211.39197 599.65723 L 208.61135 601.56586 L 175.38599 578.52503 C 175.38599 578.52503 171.52066 595.44465 170.44133 598.6399 C 169.362 601.83515 230.07195 622.34248 239.63909999999998 624.1502800000001 C 249.20624999999998 625.9580800000001 249.07892999999999 616.65944 249.07892999999999 616.65944 L 217.25191999999998 585.92915 L 211.39197 599.6573000000001 L 211.39199 599.6573000000001 L 211.39197 599.6572400000001 Z" stroke-linecap="round" />
</g>
		<g transform="matrix(1 0 0 1 -98.19 -219.01)"  >
<polygon style="stroke: none; stroke-width: 1; stroke-dasharray: none; stroke-linecap: butt; stroke-dashoffset: 0; stroke-linejoin: miter; stroke-miterlimit: 4; fill: rgb(253,173,176); fill-rule: nonzero; opacity: 1;" vector-effect="non-scaling-stroke"  points="20.06,-10.03 21.48,12.98 -21.48,15.15 -8.18,-15.15 20.06,-10.03 " />
</g>
		<g transform="matrix(1 0 0 1 -85.81 -135.4)"  >
<path style="stroke: none; stroke-width: 1; stroke-dasharray: none; stroke-linecap: butt; stroke-dashoffset: 0; stroke-linejoin: miter; stroke-miterlimit: 4; fill: rgb(224,225,226); fill-rule: nonzero; opacity: 1;" vector-effect="non-scaling-stroke"  transform=" translate(-280.03, -177.61)" d="M 290.22263 103.53149 C 278.70822999999996 108.66723 260.29148 107.26217000000001 239.42037999999997 103.53149 L 236.15832999999998 248.12821000000002 C 236.15832999999998 248.12821000000002 301.44622999999996 261.25443 323.89371 237.03481000000002 L 312.07926 118.89028000000002 L 290.22263 103.53148000000002 C 290.22263 103.53148000000002 290.22263 103.53150000000002 290.22263 103.53150000000002 Z" stroke-linecap="round" />
</g>
		<g transform="matrix(1 0 0 1 -107.52 100.66)"  >
<polygon style="stroke: none; stroke-width: 1; stroke-dasharray: none; stroke-linecap: butt; stroke-dashoffset: 0; stroke-linejoin: miter; stroke-miterlimit: 4; fill: rgb(47,46,67); fill-rule: nonzero; opacity: 1;" vector-effect="non-scaling-stroke"  points="58.49,-173.08 -33.68,-163.97 -79.17,144.87 -44.31,144.87 15.37,-66.75 20.09,173.08 51.99,173.08 79.17,-120.51 58.49,-173.08 " />
</g>
		<g transform="matrix(1 0 0 1 -125.89 -109.65)"  >
<path style="stroke: none; stroke-width: 1; stroke-dasharray: none; stroke-linecap: butt; stroke-dashoffset: 0; stroke-linejoin: miter; stroke-miterlimit: 4; fill: rgb(63,61,88); fill-rule: nonzero; opacity: 1;" vector-effect="non-scaling-stroke"  transform=" translate(-239.95, -203.35)" d="M 252.52422 94.67065 L 221.55588 112.99665999999999 C 209.82439 119.93896 204.2948 133.95326 208.12517 147.03575 L 232.05937 228.78226 C 232.05937 228.78226 193.08453 295.73972000000003 205.74919 301.64691 C 234.20848999999998 314.92132 276.67578000000003 311.68917999999996 276.67578000000003 311.68917999999996 L 267.18432 151.38000999999997 L 252.52419 94.67063999999996 L 252.52421 94.67065999999997 C 252.52421 94.67065999999997 252.52421 94.67063999999996 252.52421 94.67063999999996 Z" stroke-linecap="round" />
</g>
		<g transform="matrix(1 0 0 1 -43.74 -107.47)"  >
<path style="stroke: none; stroke-width: 1; stroke-dasharray: none; stroke-linecap: butt; stroke-dashoffset: 0; stroke-linejoin: miter; stroke-miterlimit: 4; fill: rgb(63,61,88); fill-rule: nonzero; opacity: 1;" vector-effect="non-scaling-stroke"  transform=" translate(-322.1, -205.52)" d="M 288.87726 102.92358 L 323.89371 116.5274 L 332.16382 217.54099 L 355.32394999999997 298.91684 C 316.09610999999995 313.23598999999996 319.75863999999996 306.56332 319.75863999999996 306.56332 L 313.26068 166.14807999999996 L 288.87723 102.92355999999997 L 288.87726 102.92357999999997 C 288.87726 102.92357999999997 288.87726 102.92355999999997 288.87726 102.92355999999997 Z" stroke-linecap="round" />
</g>
		<g transform="matrix(1 0 0 1 -28.35 -107.47)"  >
<path style="stroke: none; stroke-width: 1; stroke-dasharray: none; stroke-linecap: butt; stroke-dashoffset: 0; stroke-linejoin: miter; stroke-miterlimit: 4; fill: rgb(63,61,88); fill-rule: nonzero; opacity: 1;" vector-effect="non-scaling-stroke"  transform=" translate(-337.48, -205.52)" d="M 340.03061 297.19608 L 339.91065000000003 296.64328 L 304.11689 131.09225 C 303.11674 126.46663000000001 304.39579000000003 121.82995000000001 307.62537000000003 118.37044 C 310.85505 114.91044000000001 315.3942 113.31696 320.07837 113.99799 C 325.85553 114.83792 330.48077 119.0462 331.86057 124.71927 L 371.17655 286.32537 L 340.03065000000004 297.19607 L 340.03062000000006 297.19607 Z" stroke-linecap="round" />
</g>
		<g transform="matrix(1 0 0 1 -96.77 -257.77)"  >
<circle style="stroke: none; stroke-width: 1; stroke-dasharray: none; stroke-linecap: butt; stroke-dashoffset: 0; stroke-linejoin: miter; stroke-miterlimit: 4; fill: rgb(253,173,176); fill-rule: nonzero; opacity: 1;" vector-effect="non-scaling-stroke"  cx="0" cy="0" r="34.85209" />
</g>
		<g transform="matrix(1 0 0 1 -107.85 -225.87)"  >
<path style="stroke: none; stroke-width: 1; stroke-dasharray: none; stroke-linecap: butt; stroke-dashoffset: 0; stroke-linejoin: miter; stroke-miterlimit: 4; fill: rgb(47,46,67); fill-rule: nonzero; opacity: 1;" vector-effect="non-scaling-stroke"  transform=" translate(-257.98, -87.13)" d="M 285.65121 10.07328 C 293.32785 12.77139 297.72055 14.31531 301.74438 18.19173 C 308.54098 24.73963 309.66278 33.48998 310.70495 41.62043 C 311.52035 47.98092 312.57457999999997 56.204629999999995 308.84994 65.60040000000001 C 307.57885 68.80681000000001 301.4132 83.09265 289.61151 84.89802 C 287.29379 85.25252 281.85235 85.34575000000001 283.42078000000004 84.1878 C 297.93622000000005 73.47139 304.13105 67.00187 303.62317 50.48607 C 303.30768 40.22386 287.62668 29.14408 278.31561 27.152299999999997 C 274.39328 26.313369999999995 269.17135 27.079779999999996 265.42685 30.153819999999996 C 257.6012 36.57827999999999 257.93506 63.14474 249.68324 68.69821999999999 C 246.28972000000002 70.98212 248.55096 54.905269999999994 246.15968 57.51240999999999 C 241.44159000000002 62.656629999999986 244.46803 70.53456999999999 245.31585 73.53473999999999 C 249.33749 87.76554999999999 256.91967 89.15842999999998 260.84768 101.31080999999999 C 265.08859 114.43099 259.75115000000005 126.78353999999999 258.48538 129.71273 C 256.28375 134.80832999999998 252.50490000000002 143.55340999999999 243.87182 147.74885999999998 C 232.91367000000002 153.07412999999997 224.27621000000002 146.13957999999997 219.18163 152.08458 C 216.33364 155.40804 217.87417000000002 158.92781 212.7305 169.26507999999998 C 211.05138 172.63949999999997 210.21182000000002 174.32691999999997 209.46857 174.26702999999998 C 205.9513 173.98382999999998 200.25661 145.82925999999998 209.46686 119.60905999999997 C 213.33222 108.60537999999997 217.11907 97.82457999999997 227.26962 89.39438999999997 C 232.63623 84.93751999999998 237.13719 83.33368999999998 238.41833 78.12898999999997 C 240.24855 70.69338999999998 232.64857 67.51973999999997 231.12507 55.78758999999997 C 230.08330999999998 47.76394999999997 229.3524 36.28856999999997 232.18536 28.933449999999972 C 234.86045000000001 21.987669999999973 237.18277 15.958259999999973 243.26136 10.49147999999997 C 244.72126 9.178409999999971 256.50632 0.25302999999997056 269.00196 0.0012599999999700628 C 274.75477 -0.11448000000002993 278.9813 7.72908999999997 285.65113 10.07325999999997 L 285.65119000000004 10.07325999999997 Z" stroke-linecap="round" />
</g>
		<g transform="matrix(1 0 0 1 -6.54 -83.72)"  >
<circle style="stroke: none; stroke-width: 1; stroke-dasharray: none; stroke-linecap: butt; stroke-dashoffset: 0; stroke-linejoin: miter; stroke-miterlimit: 4; fill: rgb(132,155,234); fill-rule: nonzero; opacity: 1;" vector-effect="non-scaling-stroke"  cx="0" cy="0" r="85.24289" />
</g>
		<g transform="matrix(1 0 0 1 -10.16 -65.37)"  >
<path style="stroke: none; stroke-width: 1; stroke-dasharray: none; stroke-linecap: butt; stroke-dashoffset: 0; stroke-linejoin: miter; stroke-miterlimit: 4; fill: rgb(255,255,255); fill-rule: nonzero; opacity: 1;" vector-effect="non-scaling-stroke"  transform=" translate(-355.67, -247.62)" d="M 337.72504 284.89374 C 342.89977999999996 266.22738999999996 348.0745 247.56104 353.24926999999997 228.89468999999997 C 354.35094999999995 224.92073999999997 355.20333999999997 220.50708999999998 357.72495 217.13452999999996 C 359.67444 214.52719999999997 362.7407 212.82130999999995 365.98596999999995 213.89354999999995 C 373.72326999999996 216.44997999999995 373.59802999999994 227.61456999999996 373.46057999999994 234.12820999999994 C 373.2531199999999 243.96125999999992 371.03351999999995 253.77169999999995 366.94769999999994 262.72192999999993 C 366.3873699999999 263.9493499999999 366.59738999999996 265.41293999999994 367.84457999999995 266.14239999999995 C 368.91931999999997 266.77099999999996 370.70167 266.47964999999994 371.26505 265.24551999999994 C 375.35621 256.2835799999999 377.78797 246.69067999999993 378.35373 236.84759999999994 C 378.84186 228.35453999999993 378.87845 217.15422999999993 371.51721 211.36572999999993 C 367.91934 208.53654999999992 363.32712 207.69609999999992 359.10875999999996 209.65159999999992 C 354.9403 211.58398999999991 352.39491999999996 215.5850599999999 350.79421999999994 219.7276999999999 C 349.01430999999997 224.3341499999999 347.95424999999994 229.2738699999999 346.63659999999993 234.02688999999992 L 342.3906599999999 249.34286999999992 C 339.2283099999999 260.7500999999999 336.0659799999999 272.15728999999993 332.9036599999999 283.5645199999999 C 332.0427299999999 286.6699899999999 336.8652399999999 287.9952499999999 337.7250699999999 284.8937099999999 L 337.7250699999999 284.8937099999999 L 337.7250699999999 284.89373999999987 L 337.7250399999999 284.89373999999987 Z" stroke-linecap="round" />
</g>
		<g transform="matrix(1 0 0 1 -5.98 -72.86)"  >
<path style="stroke: none; stroke-width: 1; stroke-dasharray: none; stroke-linecap: butt; stroke-dashoffset: 0; stroke-linejoin: miter; stroke-miterlimit: 4; fill: rgb(255,255,255); fill-rule: nonzero; opacity: 1;" vector-effect="non-scaling-stroke"  transform=" translate(-359.86, -240.13)" d="M 359.89587 258.89703 C 363.09784 246.87825999999998 364.73388 234.44966999999997 364.74746 222.01164999999997 C 364.75097 218.79423999999997 359.75097 218.78921999999997 359.74746 222.01164999999997 C 359.73434 234.02830999999998 358.16799 245.95613999999998 355.07448999999997 257.56782999999996 C 354.24526999999995 260.68037999999996 359.06701 262.00825999999995 359.8959 258.89701999999994 L 359.89587 258.89701999999994 Z" stroke-linecap="round" />
</g>
		<g transform="matrix(1 0 0 1 -6.52 -92.82)"  >
<path style="stroke: none; stroke-width: 1; stroke-dasharray: none; stroke-linecap: butt; stroke-dashoffset: 0; stroke-linejoin: miter; stroke-miterlimit: 4; fill: rgb(255,255,255); fill-rule: nonzero; opacity: 1;" vector-effect="non-scaling-stroke"  transform=" translate(-359.31, -220.18)" d="M 308.49368 258.7525 C 311.84457 242.59555 315.47165 226.38698 320.12262 210.54809 C 323.89398 197.7048 330.39658 183.15064 344.12075999999996 178.49404 C 350.93665 176.18140000000002 358.32433999999995 176.55392 365.30069 177.89583000000002 C 372.21848 179.22649 379.22542999999996 181.20702000000003 385.60132 184.23618000000002 C 391.63687 187.10366000000002 397.22049 191.05594000000002 401.19367 196.50052000000002 C 405.11579 201.87511000000003 407.55823 208.1125 408.87461 214.60758 C 411.9296 229.68065 408.3335 245.07894000000002 404.30488 259.60668 C 403.76872000000003 261.54021 403.22047000000003 263.47033 402.67185 265.40035 C 401.79047 268.50087 406.61347 269.82445 407.49326 266.72954 C 411.94568000000004 251.06679 416.57047 234.70481999999998 414.4961 218.26646999999997 C 413.59897 211.15725999999998 411.60474 204.17341999999996 408.051 197.91645999999997 C 404.4094 191.50478999999999 399.155 186.26377999999997 392.85593 182.45434999999998 C 386.50324 178.61248999999998 379.35163 176.16671999999997 372.19062 174.33119999999997 C 364.58430000000004 172.38151999999997 356.66877 171.18142999999998 348.83463 172.27095999999997 C 341.44733 173.29832999999996 334.79187 176.80074999999997 329.56073 182.08891999999997 C 324.2016 187.50650999999996 320.57766999999996 194.27598999999998 317.90349999999995 201.35093999999998 C 314.9542799999999 209.15359999999998 313.02834999999993 217.35040999999998 310.99950999999993 225.42809999999997 C 308.8551299999999 233.96584999999996 306.85457999999994 242.53972999999996 304.9991099999999 251.14490999999998 C 304.5482399999999 253.23587999999998 304.1066199999999 255.32883999999999 303.67223999999993 257.42329 C 303.3983099999999 258.74412 304.05770999999993 260.12474000000003 305.4183299999999 260.49858 C 306.65721999999994 260.839 308.21816999999993 260.0807 308.4936199999999 258.75249 L 308.4936799999999 258.75249 Z" stroke-linecap="round" />
</g>
		<g transform="matrix(1 0 0 1 -0.86 -102.03)"  >
<path style="stroke: none; stroke-width: 1; stroke-dasharray: none; stroke-linecap: butt; stroke-dashoffset: 0; stroke-linejoin: miter; stroke-miterlimit: 4; fill: rgb(255,255,255); fill-rule: nonzero; opacity: 1;" vector-effect="non-scaling-stroke"  transform=" translate(-364.98, -210.96)" d="M 334.26349 207.06648 C 338.16254 195.23507 350.71819999999997 187.91032 362.87469999999996 188.72204000000002 C 376.34939999999995 189.62177000000003 388.02880999999996 199.46258000000003 392.75944 211.84591000000003 C 395.57043999999996 219.20422000000002 396.39563999999996 227.30273000000003 395.21385 235.08874000000003 C 395.01149 236.42199000000002 395.54988 237.77659000000003 396.95993999999996 238.16404000000003 C 398.14191999999997 238.48882000000003 399.8314 237.76092000000003 400.03522999999996 236.41795000000002 C 402.39732 220.85563000000002 398.05649999999997 203.89833000000002 385.80905999999993 193.37477 C 380.0659599999999 188.44005 373.0320499999999 185.02450000000002 365.5020199999999 184.00181 C 358.2608399999999 183.01837 350.9608199999999 184.35858000000002 344.5500499999999 187.88371 C 337.51781999999986 191.75059000000002 331.9625599999999 198.08902 329.4420499999999 205.7373 C 328.4325899999999 208.80043 333.2593399999999 210.11338 334.2634599999999 207.06649000000002 L 334.2634599999999 207.06649000000002 L 334.2634899999999 207.06647 Z" stroke-linecap="round" />
</g>
		<g transform="matrix(1 0 0 1 -44.62 -63.74)"  >
<path style="stroke: none; stroke-width: 1; stroke-dasharray: none; stroke-linecap: butt; stroke-dashoffset: 0; stroke-linejoin: miter; stroke-miterlimit: 4; fill: rgb(255,255,255); fill-rule: nonzero; opacity: 1;" vector-effect="non-scaling-stroke"  transform=" translate(-321.21, -249.25)" d="M 323.62473 229.9975 C 322.55088 242.82366 319.31809 255.50656 314.08805 267.27021 C 313.53995000000003 268.50303 313.72971 269.95649000000003 314.98493 270.69068000000004 C 316.0503 271.31382 317.85413 271.03379000000007 318.40540000000004 269.79380000000003 C 324.01893000000007 257.16758000000004 327.47162000000003 243.77018000000004 328.6247 229.99750000000003 C 328.73749000000004 228.65029000000004 327.39493000000004 227.49750000000003 326.1247 227.49750000000003 C 324.67835 227.49750000000003 323.7378 228.64643000000004 323.6247 229.99750000000003 L 323.62473 229.99750000000003 Z" stroke-linecap="round" />
</g>
		<g transform="matrix(1 0 0 1 15.78 -49.42)"  >
<path style="stroke: none; stroke-width: 1; stroke-dasharray: none; stroke-linecap: butt; stroke-dashoffset: 0; stroke-linejoin: miter; stroke-miterlimit: 4; fill: rgb(255,255,255); fill-rule: nonzero; opacity: 1;" vector-effect="non-scaling-stroke"  transform=" translate(-381.61, -263.57)" d="M 384.02057 244.31487 C 382.94672 257.14103 379.71393 269.82392 374.48389000000003 281.58759000000003 C 373.93579000000005 282.82041000000004 374.12555000000003 284.27387000000004 375.38077000000004 285.00806000000006 C 376.44614 285.63120000000004 378.24997 285.3511700000001 378.80124000000006 284.11118000000005 C 384.4147700000001 271.48496000000006 387.86746000000005 258.08756000000005 389.02054000000004 244.31488000000004 C 389.13333000000006 242.96767000000006 387.79077000000007 241.81488000000004 386.52054000000004 241.81488000000004 C 385.07419000000004 241.81488000000004 384.13364 242.96381000000005 384.02054000000004 244.31488000000004 L 384.02054000000004 244.31488000000004 L 384.02057 244.31486000000004 Z" stroke-linecap="round" />
</g>
		<g transform="matrix(1 0 0 1 -23.99 -97.49)"  >
<path style="stroke: none; stroke-width: 1; stroke-dasharray: none; stroke-linecap: butt; stroke-dashoffset: 0; stroke-linejoin: miter; stroke-miterlimit: 4; fill: rgb(255,255,255); fill-rule: nonzero; opacity: 1;" vector-effect="non-scaling-stroke"  transform=" translate(-341.85, -215.51)" d="M 336.20508 234.36423 C 339.42014 221.61527999999998 344.7471 209.53318 351.97425 198.54981999999998 C 353.74811 195.85402 349.42019999999997 193.34646999999998 347.6569 196.02621 C 340.21284 207.33920999999998 334.69514 219.90402 331.38371 233.03501 C 330.59666 236.15595 335.41749 237.48734 336.20512 234.3642 L 336.20512 234.3642 L 336.20512 234.36422000000002 L 336.20509000000004 234.36422000000002 Z" stroke-linecap="round" />
</g>
		<g transform="matrix(1 0 0 1 0 311.38)"  >
<path style="stroke: none; stroke-width: 1; stroke-dasharray: none; stroke-linecap: butt; stroke-dashoffset: 0; stroke-linejoin: miter; stroke-miterlimit: 4; fill: rgb(63,61,88); fill-rule: nonzero; opacity: 1;" vector-effect="non-scaling-stroke"  transform=" translate(-365.84, -624.38)" d="M 0 624.38336 C 0 625.04339 0.53003 625.5733600000001 1.19006 625.5733600000001 L 730.48004 625.5733600000001 C 731.1400100000001 625.5733600000001 731.6700400000001 625.04339 731.6700400000001 624.38336 C 731.6700400000001 623.72339 731.1400100000001 623.19336 730.48004 623.19336 L 1.19006 623.19336 C 0.5300299999999999 623.19336 0 623.72339 0 624.38336 Z" stroke-linecap="round" />
</g>
		<g transform="matrix(1 0 0 1 -96.77 -87.04)"  >
<path style="stroke: none; stroke-width: 1; stroke-dasharray: none; stroke-linecap: butt; stroke-dashoffset: 0; stroke-linejoin: miter; stroke-miterlimit: 4; fill: rgb(253,173,176); fill-rule: nonzero; opacity: 1;" vector-effect="non-scaling-stroke"  transform=" translate(-269.07, -225.96)" d="M 287.3429 211.89523 C 298.10607999999996 210.76281 307.37491 215.6063 308.04523 222.71264 C 308.71555 229.81895 300.53424 236.49569 289.76706 237.62702 C 285.47183 238.14013999999997 281.12405 237.57871 277.08753 235.98966 L 231.42707000000001 240.19029999999998 L 230.05628000000002 217.91798999999997 L 275.21494 216.14153 C 278.87607 213.74233999999998 283.03476 212.28631 287.3429 211.89522 C 287.3429 211.89522 287.34292999999997 211.89522 287.3429 211.89522 Z" stroke-linecap="round" />
</g>
		<g transform="matrix(1 0 0 1 -134.77 -130.27)"  >
<path style="stroke: none; stroke-width: 1; stroke-dasharray: none; stroke-linecap: butt; stroke-dashoffset: 0; stroke-linejoin: miter; stroke-miterlimit: 4; fill: rgb(63,61,88); fill-rule: nonzero; opacity: 1;" vector-effect="non-scaling-stroke"  transform=" translate(-231.06, -182.73)" d="M 231.71271 114.05334 L 231.71266 114.05334 C 220.65997 112.49662000000001 210.2906 119.76389 207.99331 130.68669 C 199.97849000000002 168.79422 185.59589 249.96792 208.18542000000002 251.32330000000002 C 237.72155000000004 253.09547 266.07623 246.00680000000003 266.07623 246.00680000000003 L 258.98755 205.24694000000002 L 235.94937 202.88406000000003 L 249.50093999999999 139.49769000000003 C 252.07404 127.46222000000003 243.89987 115.76986000000004 231.71268999999998 114.05335000000004 L 231.71271 114.05333000000003 Z" stroke-linecap="round" />
</g>
</g>
</g>
<g transform="matrix(1 0 0 1 667.14 610.36)" style="" id="f807d981-e240-448d-b027-7e4d0980b13a"  >
		<text xml:space="preserve" font-family="Raleway" font-size="113" font-style="normal" font-weight="900" style="stroke: none; stroke-width: 1; stroke-dasharray: none; stroke-linecap: butt; stroke-dashoffset: 0; stroke-linejoin: miter; stroke-miterlimit: 4; fill: rgb(59,130,246); fill-rule: nonzero; opacity: 1; white-space: pre;" ><tspan x="-157.47" y="35.5" >YBRO</tspan></text>
</g>
<g transform="matrix(0 0 0 0 0 0)"  >
<g style=""   >
</g>
</g>
<g transform="matrix(0 0 0 0 0 0)"  >
<g style=""   >
</g>
</g>
<g transform="matrix(NaN NaN NaN NaN 0 0)"  >
<g style=""   >
</g>
</g>
<g transform="matrix(NaN NaN NaN NaN 0 0)"  >
<g style=""   >
</g>
</g>
<g transform="matrix(NaN NaN NaN NaN 0 0)"  >
<g style=""   >
</g>
</g>
<g transform="matrix(NaN NaN NaN NaN 0 0)"  >
<g style=""   >
</g>
</g>
<g transform="matrix(1 0 0 1 670.47 687.95)" style="" id="727c49bf-7492-49a2-8a85-040890b7ad94"  >
		<text xml:space="preserve" font-family="Alegreya" font-size="39" font-style="normal" font-weight="700" style="stroke: none; stroke-width: 1; stroke-dasharray: none; stroke-linecap: butt; stroke-dashoffset: 0; stroke-linejoin: miter; stroke-miterlimit: 4; fill: rgb(75,85,99); fill-rule: nonzero; opacity: 1; white-space: pre;" ><tspan x="-214.07" y="12.25" >Design It! Wear It! Own It!</tspan></text>
</g>
<g transform="matrix(NaN NaN NaN NaN 0 0)"  >
<g style=""   >
</g>
</g>
<g transform="matrix(NaN NaN NaN NaN 0 0)"  >
<g style=""   >
</g>
</g>
</svg>